<?xml version="1.0" encoding="UTF-8" standalone="no"?>
<!-- icon666.com - MILLIONS vector ICONS FREE -->

<svg
   version="1.1"
   id="Capa_1"
   x="0px"
   y="0px"
   viewBox="0 0 459 459"
   style="enable-background:new 0 0 459 459;"
   xml:space="preserve"
   sodipodi:docname="NewTab.svg"
   inkscape:version="1.3.2 (091e20e, 2023-11-25, custom)"
   xmlns:inkscape="http://www.inkscape.org/namespaces/inkscape"
   xmlns:sodipodi="http://sodipodi.sourceforge.net/DTD/sodipodi-0.dtd"
   xmlns="http://www.w3.org/2000/svg"
   xmlns:svg="http://www.w3.org/2000/svg"><defs
     id="defs1" /><sodipodi:namedview
     id="namedview1"
     pagecolor="#ffffff"
     bordercolor="#000000"
     borderopacity="0.25"
     inkscape:showpageshadow="2"
     inkscape:pageopacity="0.0"
     inkscape:pagecheckerboard="0"
     inkscape:deskcolor="#d1d1d1"
     inkscape:zoom="0.70710678"
     inkscape:cx="16.970563"
     inkscape:cy="140.71425"
     inkscape:window-width="1920"
     inkscape:window-height="986"
     inkscape:window-x="2509"
     inkscape:window-y="-11"
     inkscape:window-maximized="1"
     inkscape:current-layer="Capa_1" /><path
     id="path5"
     style="fill:#ffffff"
     d="M 51 0 C 22.950112 0 0 22.950112 0 51 L 0 408 C 0 436.04988 22.950112 459 51 459 L 408 459 C 436.04988 459 459 436.04988 459 408 L 459 144.09766 L 459 60.701172 L 459 51 C 459 22.950112 436.04988 0 408 0 L 51 0 z M 51 51 L 132.49609 51 C 126.50255 57.41388 122.8418 65.835313 122.8418 75.115234 L 122.8418 129.68359 C 122.8418 149.83795 139.96556 166.06445 161.23438 166.06445 L 408 166.06445 L 408 408 L 51 408 L 51 51 z M 183.17773 66.216797 L 402.91992 66.216797 C 404.67816 66.216797 406.37262 66.446803 407.99805 66.839844 L 407.99805 133.20508 C 406.37262 133.59804 404.67816 133.82813 402.91992 133.82812 L 183.17773 133.82812 C 171.88417 133.82812 162.79297 125.21354 162.79297 114.51172 L 162.79297 85.535156 C 162.79297 74.833335 171.88417 66.216797 183.17773 66.216797 z M 229.51172 218.66992 A 38.031235 38.031235 0 0 0 191.48047 256.70117 A 38.031235 38.031235 0 0 0 229.51172 294.73242 A 38.031235 38.031235 0 0 0 267.54297 256.70117 A 38.031235 38.031235 0 0 0 229.51172 218.66992 z M 324.73438 218.67188 A 38.031235 38.031235 0 0 0 286.70312 256.70312 A 38.031235 38.031235 0 0 0 324.73438 294.73438 A 38.031235 38.031235 0 0 0 362.76562 256.70312 A 38.031235 38.031235 0 0 0 324.73438 218.67188 z M 134.56641 218.67969 A 38.031235 38.031235 0 0 0 96.535156 256.71094 A 38.031235 38.031235 0 0 0 134.56641 294.74219 A 38.031235 38.031235 0 0 0 172.59766 256.71094 A 38.031235 38.031235 0 0 0 134.56641 218.67969 z " /></svg>
